<svg width="60" height="60" viewBox="0 0 60 60" fill="none" xmlns="http://www.w3.org/2000/svg">
<path d="M30 60C25.9 60 22.025 59.2125 18.375 57.6375C14.725 56.0625 11.5375 53.9125 8.8125 51.1875C6.0875 48.4625 3.9375 45.275 2.3625 41.625C0.7875 37.975 0 34.1 0 30C0 25.85 0.7875 21.9625 2.3625 18.3375C3.9375 14.7125 6.0875 11.5375 8.8125 8.8125C11.5375 6.0875 14.725 3.9375 18.375 2.3625C22.025 0.7875 25.9 0 30 0C34.15 0 38.0375 0.7875 41.6625 2.3625C45.2875 3.9375 48.4625 6.0875 51.1875 8.8125C53.9125 11.5375 56.0625 14.7125 57.6375 18.3375C59.2125 21.9625 60 25.85 60 30C60 34.1 59.2125 37.975 57.6375 41.625C56.0625 45.275 53.9125 48.4625 51.1875 51.1875C48.4625 53.9125 45.2875 56.0625 41.6625 57.6375C38.0375 59.2125 34.15 60 30 60ZM30 53.85C31.3 52.05 32.425 50.175 33.375 48.225C34.325 46.275 35.1 44.2 35.7 42H24.3C24.9 44.2 25.675 46.275 26.625 48.225C27.575 50.175 28.7 52.05 30 53.85ZM22.2 52.65C21.3 51 20.5125 49.2875 19.8375 47.5125C19.1625 45.7375 18.6 43.9 18.15 42H9.3C10.75 44.5 12.5625 46.675 14.7375 48.525C16.9125 50.375 19.4 51.75 22.2 52.65ZM37.8 52.65C40.6 51.75 43.0875 50.375 45.2625 48.525C47.4375 46.675 49.25 44.5 50.7 42H41.85C41.4 43.9 40.8375 45.7375 40.1625 47.5125C39.4875 49.2875 38.7 51 37.8 52.65ZM6.75 36H16.95C16.8 35 16.6875 34.0125 16.6125 33.0375C16.5375 32.0625 16.5 31.05 16.5 30C16.5 28.95 16.5375 27.9375 16.6125 26.9625C16.6875 25.9875 16.8 25 16.95 24H6.75C6.5 25 6.3125 25.9875 6.1875 26.9625C6.0625 27.9375 6 28.95 6 30C6 31.05 6.0625 32.0625 6.1875 33.0375C6.3125 34.0125 6.5 35 6.75 36ZM22.95 36H37.05C37.2 35 37.3125 34.0125 37.3875 33.0375C37.4625 32.0625 37.5 31.05 37.5 30C37.5 28.95 37.4625 27.9375 37.3875 26.9625C37.3125 25.9875 37.2 25 37.05 24H22.95C22.8 25 22.6875 25.9875 22.6125 26.9625C22.5375 27.9375 22.5 28.95 22.5 30C22.5 31.05 22.5375 32.0625 22.6125 33.0375C22.6875 34.0125 22.8 35 22.95 36ZM43.05 36H53.25C53.5 35 53.6875 34.0125 53.8125 33.0375C53.9375 32.0625 54 31.05 54 30C54 28.95 53.9375 27.9375 53.8125 26.9625C53.6875 25.9875 53.5 25 53.25 24H43.05C43.2 25 43.3125 25.9875 43.3875 26.9625C43.4625 27.9375 43.5 28.95 43.5 30C43.5 31.05 43.4625 32.0625 43.3875 33.0375C43.3125 34.0125 43.2 35 43.05 36ZM41.85 18H50.7C49.25 15.5 47.4375 13.325 45.2625 11.475C43.0875 9.625 40.6 8.25 37.8 7.35C38.7 9 39.4875 10.7125 40.1625 12.4875C40.8375 14.2625 41.4 16.1 41.85 18ZM24.3 18H35.7C35.1 15.8 34.325 13.725 33.375 11.775C32.425 9.825 31.3 7.95 30 6.15C28.7 7.95 27.575 9.825 26.625 11.775C25.675 13.725 24.9 15.8 24.3 18ZM9.3 18H18.15C18.6 16.1 19.1625 14.2625 19.8375 12.4875C20.5125 10.7125 21.3 9 22.2 7.35C19.4 8.25 16.9125 9.625 14.7375 11.475C12.5625 13.325 10.75 15.5 9.3 18Z" fill="#FFD700"/>
</svg>
