<svg width="75" height="75" viewBox="0 0 75 75" fill="none" xmlns="http://www.w3.org/2000/svg">
<path d="M12.5 59.375C10.7812 59.375 9.3099 58.763 8.08594 57.5391C6.86198 56.3151 6.25 54.8438 6.25 53.125V21.875C6.25 20.1562 6.86198 18.6849 8.08594 17.4609C9.3099 16.237 10.7812 15.625 12.5 15.625H62.5C64.2188 15.625 65.6901 16.237 66.9141 17.4609C68.138 18.6849 68.75 20.1562 68.75 21.875V53.125C68.75 54.8438 68.138 56.3151 66.9141 57.5391C65.6901 58.763 64.2188 59.375 62.5 59.375H12.5ZM12.5 53.125H62.5V21.875H12.5V53.125ZM25 50H50V43.75H25V50ZM15.625 40.625H21.875V34.375H15.625V40.625ZM25 40.625H31.25V34.375H25V40.625ZM34.375 40.625H40.625V34.375H34.375V40.625ZM43.75 40.625H50V34.375H43.75V40.625ZM53.125 40.625H59.375V34.375H53.125V40.625ZM15.625 31.25H21.875V25H15.625V31.25ZM25 31.25H31.25V25H25V31.25ZM34.375 31.25H40.625V25H34.375V31.25ZM43.75 31.25H50V25H43.75V31.25ZM53.125 31.25H59.375V25H53.125V31.25Z" fill="#FFD700" />
</svg>
